<svg width="27" height="30" viewBox="0 0 27 30" fill="none" xmlns="http://www.w3.org/2000/svg">
<path d="M21.9341 9.98625L13.5 19.1212L5.0659 9.98625C4.91521 9.82269 4.71292 9.73112 4.50227 9.73112C4.29162 9.73112 4.08933 9.82269 3.93865 9.98625C3.86568 10.0657 3.80772 10.1605 3.76815 10.2651C3.72857 10.3698 3.70819 10.4821 3.70819 10.5956C3.70819 10.7091 3.72857 10.8215 3.76815 10.9261C3.80772 11.0308 3.86568 11.1256 3.93865 11.205L12.9111 20.925C13.0687 21.0956 13.28 21.1912 13.5 21.1912C13.7201 21.1912 13.9314 21.0956 14.089 20.925L23.0614 11.2069C23.1349 11.1274 23.1933 11.0323 23.2332 10.9274C23.273 10.8224 23.2936 10.7096 23.2936 10.5956C23.2936 10.4817 23.273 10.3689 23.2332 10.2639C23.1933 10.1589 23.1349 10.0639 23.0614 9.98437C22.9107 9.82081 22.7084 9.72925 22.4978 9.72925C22.2871 9.72925 22.0848 9.82081 21.9341 9.98437V9.98625Z" fill="#111111"/>
</svg>
